<svg width="36" height="24" viewBox="0 0 36 24" fill="none" xmlns="http://www.w3.org/2000/svg">
<path d="M1.95799 23.4959H33.2859C34.3628 23.4959 35.2439 22.6148 35.2439 21.5379C35.2439 20.461 34.3628 19.5799 33.2859 19.5799H1.95799C0.881097 19.5799 0 20.461 0 21.5379C0 22.6148 0.881097 23.4959 1.95799 23.4959ZM1.95799 13.706H33.2859C34.3628 13.706 35.2439 12.8249 35.2439 11.748C35.2439 10.6711 34.3628 9.78997 33.2859 9.78997H1.95799C0.881097 9.78997 0 10.6711 0 11.748C0 12.8249 0.881097 13.706 1.95799 13.706ZM0 1.95799C0 3.03489 0.881097 3.91599 1.95799 3.91599H33.2859C34.3628 3.91599 35.2439 3.03489 35.2439 1.95799C35.2439 0.881097 34.3628 0 33.2859 0H1.95799C0.881097 0 0 0.881097 0 1.95799Z" fill="#273746"/>
</svg>
